<svg xmlns="http://www.w3.org/2000/svg" width="182.924" height="107.29" viewBox="0 0 182.924 107.29"><defs><style>.a{fill:#fff;}</style></defs><g transform="translate(-71 -270)"><g transform="translate(71 270)"><g transform="translate(0 87.077)"><g transform="translate(0 0)"><path class="a" d="M241.915,283.823H231.528a2.128,2.128,0,0,0-1.741.679,2.553,2.553,0,0,0-.561,1.682,2.258,2.258,0,0,0,.517,1.519,2.88,2.88,0,0,0,1.667.841v3.01a5.153,5.153,0,0,1-2.1-.428,5.549,5.549,0,0,1-2.877-2.877,5.073,5.073,0,0,1-.428-2.065,6.038,6.038,0,0,1,.383-2.2,5.344,5.344,0,0,1,1.033-1.7,4.5,4.5,0,0,1,1.52-1.092,4.6,4.6,0,0,1,1.874-.384h11.1ZM226.3,296.216h10.328a2.193,2.193,0,0,0,1.77-.664,2.541,2.541,0,0,0,.56-1.7,2.215,2.215,0,0,0-.516-1.49,2.884,2.884,0,0,0-1.667-.841v-3.039a5.186,5.186,0,0,1,2.08.428,5.509,5.509,0,0,1,1.726,1.166,5.779,5.779,0,0,1,1.181,1.711,4.936,4.936,0,0,1,.443,2.065,6.027,6.027,0,0,1-.384,2.2,5.189,5.189,0,0,1-1.047,1.7,4.656,4.656,0,0,1-3.408,1.476H226.3Z" transform="translate(-226.01 -280.754)"/><path class="a" d="M263.558,290.055a5.207,5.207,0,0,0,.31,1.756,6.922,6.922,0,0,0,.87,1.667,7.456,7.456,0,0,0,1.343,1.446,7.747,7.747,0,0,0,1.756,1.091l-2.007,2.538a10.654,10.654,0,0,1-2.242-1.564,10.107,10.107,0,0,1-1.712-2.021,9.524,9.524,0,0,1-1.092-2.361,8.769,8.769,0,0,1-.384-2.582,9.049,9.049,0,0,1,.723-3.585,9.254,9.254,0,0,1,1.977-2.951,9.42,9.42,0,0,1,2.965-1.992,9.518,9.518,0,0,1,7.347,0,9.305,9.305,0,0,1,4.958,4.942,8.9,8.9,0,0,1,.738,3.585,8.3,8.3,0,0,1-.413,2.611A9.416,9.416,0,0,1,277.529,295a10.664,10.664,0,0,1-4.116,3.556l-1.711-2.6a9.106,9.106,0,0,0,1.711-1.077,7.674,7.674,0,0,0,1.372-1.4,6.507,6.507,0,0,0,.9-1.638,5.069,5.069,0,0,0,.325-1.785,5.716,5.716,0,0,0-.5-2.361,6.371,6.371,0,0,0-1.357-1.962,6.642,6.642,0,0,0-1.992-1.343,5.977,5.977,0,0,0-4.8,0,6.7,6.7,0,0,0-1.977,1.343,6.167,6.167,0,0,0-1.343,1.962A5.864,5.864,0,0,0,263.558,290.055Z" transform="translate(-241.515 -280.73)"/><path class="a" d="M300.433,280.813h14.016v3.01H303.59v15.4h-3.157ZM314.272,292h-9.383v-3.009h9.383Z" transform="translate(-259.563 -280.754)"/><path class="a" d="M332.513,280.813H348.3v3.01h-6.344v15.4h-3.187v-15.4h-6.255Z" transform="translate(-274.026 -280.754)"/><path class="a" d="M367.817,299.226V280.813h11.331a4.215,4.215,0,0,1,1.859.428,4.779,4.779,0,0,1,1.549,1.195,6,6,0,0,1,1.062,1.814,6.294,6.294,0,0,1,.4,2.258,5.7,5.7,0,0,1-.383,2.08,5.917,5.917,0,0,1-1.033,1.741,5.089,5.089,0,0,1-1.534,1.21,3.99,3.99,0,0,1-1.859.457h-3.482v-3.009h3.157a1.458,1.458,0,0,0,.826-.236,2.033,2.033,0,0,0,.59-.605,2.572,2.572,0,0,0,.339-.811,3.749,3.749,0,0,0,.1-.856,3.227,3.227,0,0,0-.133-.9,3.36,3.36,0,0,0-.383-.856,2.175,2.175,0,0,0-.619-.649,1.411,1.411,0,0,0-.812-.251h-7.819v15.4Z" transform="translate(-289.943 -280.754)"/><path class="a" d="M416.233,299.226l-5.193-10.239h3.629a1.458,1.458,0,0,0,.826-.236,2.034,2.034,0,0,0,.59-.605,2.572,2.572,0,0,0,.339-.811,3.747,3.747,0,0,0,.1-.856,3.2,3.2,0,0,0-.133-.9,3.34,3.34,0,0,0-.383-.856,2.169,2.169,0,0,0-.619-.649,1.412,1.412,0,0,0-.812-.251h-7.819v15.4H403.6V280.813h11.331a4.216,4.216,0,0,1,1.859.428,4.78,4.78,0,0,1,1.549,1.195,6,6,0,0,1,1.062,1.814,6.294,6.294,0,0,1,.4,2.258,5.884,5.884,0,0,1-.295,1.844,5.973,5.973,0,0,1-.811,1.623,5.422,5.422,0,0,1-1.225,1.239,4.017,4.017,0,0,1-1.505.694l3.718,7.318Z" transform="translate(-306.078 -280.754)"/><path class="a" d="M438.853,299.226V280.813h3.158v18.413Z" transform="translate(-321.969 -280.754)"/><path class="a" d="M462.076,300.919l-7.642-15.285v13.544h-3.275V280.706h4.4l6.521,13.219,6.581-13.219h4.426v18.472h-3.216V285.515Z" transform="translate(-327.517 -280.706)"/><path class="a" d="M497.8,280.813h14.016v3.01H500.958v12.393h10.859v3.01H497.8ZM511.64,292h-9.324v-3.009h9.324Z" transform="translate(-348.546 -280.754)"/><path class="a" d="M545.517,283.823H535.13a2.128,2.128,0,0,0-1.741.679,2.552,2.552,0,0,0-.561,1.682,2.258,2.258,0,0,0,.516,1.519,2.88,2.88,0,0,0,1.667.841v3.01a5.153,5.153,0,0,1-2.1-.428,5.554,5.554,0,0,1-2.877-2.877,5.081,5.081,0,0,1-.428-2.065,6.038,6.038,0,0,1,.383-2.2,5.345,5.345,0,0,1,1.033-1.7,4.51,4.51,0,0,1,1.519-1.092,4.6,4.6,0,0,1,1.874-.384h11.095Zm-15.61,12.393h10.328a2.192,2.192,0,0,0,1.771-.664,2.541,2.541,0,0,0,.561-1.7,2.215,2.215,0,0,0-.517-1.49,2.881,2.881,0,0,0-1.667-.841v-3.039a5.186,5.186,0,0,1,2.081.428,5.522,5.522,0,0,1,1.726,1.166,5.768,5.768,0,0,1,1.18,1.711,4.928,4.928,0,0,1,.443,2.065,6.038,6.038,0,0,1-.383,2.2,5.2,5.2,0,0,1-1.048,1.7,4.656,4.656,0,0,1-3.408,1.476H529.907Z" transform="translate(-362.888 -280.754)"/></g></g><g transform="translate(55.218)"><path class="a" d="M335.694,124.852a22.937,22.937,0,0,0-6.418,4.57c1.578-.707,3.206-1.318,4.71-2.165A13.493,13.493,0,0,0,335.694,124.852Z" transform="translate(-318.108 -124.852)"/><path class="a" d="M332.187,139.659a41.475,41.475,0,0,0-5,1.884,37.958,37.958,0,0,0-2.044,5.151c1.829-.571,3.693-1.047,5.561-1.473C331.16,143.356,331.666,141.508,332.187,139.659Z" transform="translate(-316.245 -131.528)"/><path class="a" d="M308.94,154.467c1.032-.867,2.48-1.438,2.961-2.8.571-1.293,1.147-2.59,1.718-3.883A23.308,23.308,0,0,0,308.94,154.467Z" transform="translate(-308.94 -135.193)"/><path class="a" d="M356.968,134.705a24.015,24.015,0,0,0-5.862,1.413,14.667,14.667,0,0,0-1.613,2.626c2.21-.416,4.409-.872,6.644-1.122C356.412,136.649,356.692,135.677,356.968,134.705Z" transform="translate(-327.223 -129.294)"/><path class="a" d="M378.8,139.181q-.2-1.488-.456-2.961c-2.144-.091-4.294-.115-6.433,0-.141,1.007-.271,2.019-.4,3.026C373.938,139.121,376.368,139.236,378.8,139.181Z" transform="translate(-337.149 -129.942)"/><path class="a" d="M401.276,148.2q-.8-1.382-1.638-2.735a36.891,36.891,0,0,0-5.787-1.263c.22.972.481,1.929.752,2.891C396.847,147.339,399.056,147.805,401.276,148.2Z" transform="translate(-347.222 -133.576)"/><path class="a" d="M417.314,155.769a25.92,25.92,0,0,0-6.95-4.76c.772.842,1.393,1.819,2.22,2.605C414.117,154.421,415.74,155.047,417.314,155.769Z" transform="translate(-354.667 -136.645)"/><path class="a" d="M397.9,162.333c2.515.231,5.03.466,7.54.767a57.485,57.485,0,0,0-1.118-5.742,43.938,43.938,0,0,0-7.089-.957C397.517,158.37,397.707,160.354,397.9,162.333Z" transform="translate(-348.748 -139.076)"/><path class="a" d="M417.108,165.083c1.894.476,3.783.942,5.657,1.483a27.479,27.479,0,0,0-2-4.96,22.7,22.7,0,0,0-5-2.039C416.246,161.4,416.757,163.224,417.108,165.083Z" transform="translate(-357.102 -140.503)"/><path class="a" d="M329.23,172.778c2.034-.2,4.063-.4,6.087-.656.146-2.51.446-5.006.727-7.5a40.1,40.1,0,0,0-5.792,1.227C329.876,168.153,329.485,170.458,329.23,172.778Z" transform="translate(-318.088 -142.782)"/><path class="a" d="M433.218,171.987a26.242,26.242,0,0,0-4.634-6.609q.782,1.939,1.648,3.848C430.743,170.564,432.2,171.11,433.218,171.987Z" transform="translate(-362.881 -143.123)"/><path class="a" d="M344.694,249.341c1.563,2.18,4.084,3.322,6.3,4.7-.551-.837-1.112-1.668-1.663-2.505A41.3,41.3,0,0,1,344.694,249.341Z" transform="translate(-325.06 -180.977)"/><path class="a" d="M370.147,159.268c-1.824-1.5-3.492-3.192-5.436-4.544-1.357-1.3-.27-3.292-.29-4.91a45.052,45.052,0,0,0-6.939,1.1A45.888,45.888,0,0,0,356.2,156.5c1.884-.085,3.762-.331,5.646-.451,1.749,1.759,3.617,3.392,5.521,4.98.566,2.089.06,4.274.17,6.408q4.419.037,8.843,0c0-2.721-.07-5.436-.136-8.157C374.216,159.193,372.181,159.218,370.147,159.268Z" transform="translate(-330.246 -136.106)"/><path class="a" d="M356.428,169.155c-2.621.146-5.245.331-7.856.651-.241,2.6-.461,5.2-.622,7.8,2.706-.13,5.416-.25,8.121-.31C356.158,174.576,356.283,171.866,356.428,169.155Z" transform="translate(-326.528 -144.826)"/><path class="a" d="M317.306,178.161c.952-.261,1.9-.536,2.846-.807.245-2.235.751-4.429,1.072-6.649a11.792,11.792,0,0,0-2.63,1.713A21.12,21.12,0,0,0,317.306,178.161Z" transform="translate(-312.712 -145.525)"/><path class="a" d="M425.2,176.995c-1.949-.446-3.9-.887-5.867-1.2.371,2.5.616,5,.786,7.52,2.044.251,4.088.451,6.142.636C425.9,181.634,425.555,179.314,425.2,176.995Z" transform="translate(-358.71 -147.82)"/><path class="a" d="M435.054,185.88c.947.265,1.894.546,2.826.867a23.346,23.346,0,0,0-1.353-5.817,10.734,10.734,0,0,0-2.715-1.739C434.328,181.4,434.638,183.65,435.054,185.88Z" transform="translate(-365.238 -149.35)"/><path class="a" d="M329.249,194.682a37.3,37.3,0,0,0-.015,6.609l2.921.376c-.046-2.415-.01-4.83.025-7.239C331.2,194.5,330.226,194.6,329.249,194.682Z" transform="translate(-318.027 -156.22)"/><path class="a" d="M353.278,195.724c.025,2.576-.126,5.155.115,7.726l1.408-.06c1.533.125,3.066.215,4.6.291-.015-.862-.025-1.718-.04-2.58,1.2.025,2.4.04,3.6.045.03.942.07,1.879.136,2.816l.371-.29a70.93,70.93,0,0,0,7.8.25c-.02-2.915-.1-5.836.075-8.747-2.776-.141-5.561,0-8.337.12.01.852.015,1.7.025,2.555-1.283.04-2.565.04-3.843-.02a9.1,9.1,0,0,0,.25-2.42C357.386,195.433,355.322,195.5,353.278,195.724Z" transform="translate(-328.919 -156.529)"/><path class="a" d="M330.06,231.55a22.389,22.389,0,0,0,4.775,6.649c-.812-1.493-1.393-3.1-2.159-4.61A26.414,26.414,0,0,0,330.06,231.55Z" transform="translate(-318.462 -172.956)"/><path class="a" d="M417.574,196.945c-.822-.025-1.643-.045-2.46-.065l-3.647-.2c.03.837.05,1.678.075,2.52-1.227-.01-2.45-.07-3.677-.085,0-.857,0-1.708,0-2.565-2.736-.06-5.476-.065-8.212-.176.03,3.016-.055,6.037.04,9.053l.521-.275c2.545.17,5.1-.015,7.646-.085,0-.857.015-1.714.02-2.571,1.192-.03,2.385-.05,3.577-.07a17.951,17.951,0,0,1,.03,2.545c2.049-.075,4.093-.21,6.142-.29C417.615,202.106,417.695,199.526,417.574,196.945Z" transform="translate(-349.832 -157.1)"/><path class="a" d="M439.482,198.24c-1-.11-2-.246-3.006-.346.085,2.43.09,4.855.04,7.285.992-.13,1.988-.25,2.986-.371A59.964,59.964,0,0,0,439.482,198.24Z" transform="translate(-366.439 -157.783)"/><path class="a" d="M328.773,217.043c-.992-.3-1.994-.571-3-.8a33.576,33.576,0,0,0,1.358,5.571,8.6,8.6,0,0,0,2.721,1.859C329.445,221.467,328.994,219.272,328.773,217.043Z" transform="translate(-316.529 -166.054)"/><path class="a" d="M433.839,223.748a12.748,12.748,0,0,0,2.766-1.818,29.824,29.824,0,0,0,1.313-5.551,13.67,13.67,0,0,0-3.021.817A41.472,41.472,0,0,1,433.839,223.748Z" transform="translate(-365.25 -166.116)"/><path class="a" d="M336.365,225.269c1.9.431,3.793.867,5.717,1.172-.305-2.51-.571-5.025-.741-7.545-2.019-.2-4.038-.4-6.052-.666A60.68,60.68,0,0,0,336.365,225.269Z" transform="translate(-320.819 -166.951)"/><path class="a" d="M419.342,226.5c1.949-.321,3.873-.791,5.812-1.177.481-2.325.807-4.674,1.057-7.029-2.009.21-4.018.446-6.032.606C419.968,221.44,419.708,223.98,419.342,226.5Z" transform="translate(-358.714 -166.98)"/><path class="a" d="M353.556,227.623c2.565.3,5.145.481,7.726.622-.05-2.691-.205-5.376-.231-8.067-2.7-.205-5.4-.16-8.091-.406A74.558,74.558,0,0,0,353.556,227.623Z" transform="translate(-328.786 -167.646)"/><path class="a" d="M344.224,238.208c-1.879-.511-3.758-1.027-5.652-1.5a29.915,29.915,0,0,0,1.929,4.855c1.5,1.118,3.4,1.493,5.125,2.16A43.55,43.55,0,0,1,344.224,238.208Z" transform="translate(-322.299 -175.28)"/><path class="a" d="M366.182,220.562a60.548,60.548,0,0,1-.025,6.322c-2.035,1.589-3.9,3.372-5.8,5.115a44.27,44.27,0,0,1-5.461-.616,40.513,40.513,0,0,0,1.158,5.817,47.652,47.652,0,0,0,7.029.967c-.176-1.343-.346-2.685-.521-4.023,1.964-1.8,4.053-3.467,6.037-5.25,2.114-.09,4.233-.075,6.353-.085.01-2.756.08-5.511.115-8.262C372.1,220.6,369.143,220.562,366.182,220.562Z" transform="translate(-329.658 -167.996)"/><path class="a" d="M430.283,234.334c-.576,1.317-1.163,2.63-1.708,3.963a26.246,26.246,0,0,0,4.594-6.573C432.162,232.52,430.779,233.056,430.283,234.334Z" transform="translate(-362.877 -173.035)"/><path class="a" d="M415.51,243.748c1.713-.586,3.4-1.258,5.085-1.919a34.626,34.626,0,0,0,2.064-5.215c-1.9.521-3.8,1.072-5.691,1.623A28.734,28.734,0,0,1,415.51,243.748Z" transform="translate(-356.987 -175.239)"/><path class="a" d="M410.4,254.268c2.315-1.428,4.9-2.645,6.6-4.845-1.493.731-2.976,1.473-4.529,2.064Q411.491,252.915,410.4,254.268Z" transform="translate(-354.683 -181.014)"/><path class="a" d="M397.907,241.115c-.12,2.009-.331,4.013-.571,6.017,2.365-.26,4.714-.626,7.059-1.022.386-1.944.887-3.873,1.107-5.847C402.982,240.669,400.438,240.844,397.907,241.115Z" transform="translate(-348.793 -176.885)"/><path class="a" d="M358.252,254.742a9.7,9.7,0,0,0,1.743,2.725,27.77,27.77,0,0,0,5.707,1.4c-.241-.962-.5-1.919-.746-2.875C362.716,255.6,360.466,255.268,358.252,254.742Z" transform="translate(-331.172 -183.412)"/><path class="a" d="M395.183,258.943c1.944-.431,3.888-.887,5.827-1.348a17.124,17.124,0,0,0,1.608-2.826c-2.129.511-4.309.762-6.458,1.193A21,21,0,0,0,395.183,258.943Z" transform="translate(-347.822 -183.425)"/><path class="a" d="M376.936,257.522a11.627,11.627,0,0,0,.546,3.066c2.124-.135,4.259.141,6.368-.13a26.661,26.661,0,0,0,.36-2.961C381.786,257.562,379.361,257.542,376.936,257.522Z" transform="translate(-339.596 -184.654)"/></g></g></g></svg>