<svg xmlns="http://www.w3.org/2000/svg" width="37.584" height="39.018" viewBox="0 0 37.584 39.018"><defs><style>.a{fill:#1377f0;}</style></defs><path class="a" d="M332.574,124.852a11.786,11.786,0,0,0-3.3,2.348c.811-.363,1.648-.677,2.42-1.112A6.935,6.935,0,0,0,332.574,124.852Z" transform="translate(-323.538 -124.852)"/><path class="a" d="M328.762,139.659a21.312,21.312,0,0,0-2.569.968,19.505,19.505,0,0,0-1.05,2.647c.94-.293,1.9-.538,2.858-.757C328.235,141.559,328.495,140.609,328.762,139.659Z" transform="translate(-320.571 -135.481)"/><path class="a" d="M308.94,151.22c.53-.446,1.274-.739,1.521-1.437.293-.664.589-1.331.883-2A11.976,11.976,0,0,0,308.94,151.22Z" transform="translate(-308.94 -141.316)"/><path class="a" d="M353.334,134.7a12.341,12.341,0,0,0-3.012.726,7.535,7.535,0,0,0-.829,1.349c1.135-.214,2.266-.448,3.414-.577C353.048,135.7,353.192,135.2,353.334,134.7Z" transform="translate(-338.05 -131.925)"/><path class="a" d="M375.254,137.7q-.1-.765-.234-1.521c-1.1-.047-2.206-.059-3.305,0-.072.518-.139,1.037-.206,1.555C372.757,137.673,374.005,137.732,375.254,137.7Z" transform="translate(-353.853 -132.957)"/><path class="a" d="M397.666,146.257q-.409-.71-.842-1.406a18.957,18.957,0,0,0-2.974-.649c.113.5.247.991.386,1.485C395.391,145.815,396.526,146.054,397.666,146.257Z" transform="translate(-369.891 -138.743)"/><path class="a" d="M413.935,153.455a13.318,13.318,0,0,0-3.571-2.446c.4.433.716.935,1.141,1.339C412.292,152.762,413.127,153.084,413.935,153.455Z" transform="translate(-381.745 -143.628)"/><path class="a" d="M397.578,159.449c1.292.118,2.585.239,3.875.394a29.543,29.543,0,0,0-.574-2.95,22.577,22.577,0,0,0-3.643-.492C397.38,157.413,397.478,158.432,397.578,159.449Z" transform="translate(-372.321 -147.499)"/><path class="a" d="M416.455,162.4c.973.245,1.944.484,2.907.762a14.122,14.122,0,0,0-1.03-2.549,11.665,11.665,0,0,0-2.567-1.048C416.012,160.509,416.275,161.446,416.455,162.4Z" transform="translate(-385.622 -149.771)"/><path class="a" d="M329.23,168.812c1.045-.1,2.088-.2,3.128-.337.075-1.29.229-2.572.373-3.854a20.6,20.6,0,0,0-2.976.631C329.562,166.436,329.361,167.62,329.23,168.812Z" transform="translate(-323.505 -153.399)"/><path class="a" d="M430.965,168.774a13.483,13.483,0,0,0-2.381-3.4q.4,1,.847,1.977C429.693,168.043,430.44,168.323,430.965,168.774Z" transform="translate(-394.823 -153.943)"/><path class="a" d="M344.694,249.341a10.4,10.4,0,0,0,3.236,2.417c-.283-.43-.571-.857-.855-1.287A21.221,21.221,0,0,1,344.694,249.341Z" transform="translate(-334.605 -214.213)"/><path class="a" d="M363.366,154.672c-.937-.77-1.794-1.64-2.793-2.335-.7-.667-.139-1.691-.149-2.523a23.149,23.149,0,0,0-3.566.564,23.582,23.582,0,0,0-.659,2.873c.968-.044,1.933-.17,2.9-.232.9.9,1.859,1.743,2.837,2.559a15.447,15.447,0,0,1,.087,3.293q2.271.019,4.544,0c0-1.4-.036-2.793-.07-4.191C365.457,154.633,364.411,154.646,363.366,154.672Z" transform="translate(-342.864 -142.77)"/><path class="a" d="M352.307,169.155c-1.346.075-2.7.17-4.036.335-.124,1.334-.237,2.67-.319,4.006,1.39-.067,2.783-.129,4.173-.159C352.168,171.941,352.232,170.548,352.307,169.155Z" transform="translate(-336.943 -156.654)"/><path class="a" d="M317.306,174.537c.489-.134.975-.275,1.462-.415.126-1.148.386-2.276.551-3.416a6.059,6.059,0,0,0-1.352.88A10.853,10.853,0,0,0,317.306,174.537Z" transform="translate(-314.945 -157.767)"/><path class="a" d="M422.347,176.412c-1-.229-2-.456-3.014-.615.19,1.282.317,2.572.4,3.864,1.05.129,2.1.232,3.156.327C422.705,178.8,422.53,177.6,422.347,176.412Z" transform="translate(-388.183 -161.422)"/><path class="a" d="M434.45,182.628c.486.136.973.28,1.452.445a12,12,0,0,0-.7-2.989,5.516,5.516,0,0,0-1.4-.893C434.077,180.326,434.237,181.482,434.45,182.628Z" transform="translate(-398.576 -163.858)"/><path class="a" d="M329.174,194.558a19.172,19.172,0,0,0-.008,3.4l1.5.193c-.023-1.241-.005-2.482.013-3.72C330.178,194.463,329.676,194.514,329.174,194.558Z" transform="translate(-323.407 -174.795)"/><path class="a" d="M353.267,195.427c.013,1.323-.065,2.649.059,3.97l.724-.031c.788.064,1.576.111,2.366.149-.008-.443-.013-.883-.021-1.326.618.013,1.233.021,1.851.023.016.484.036.965.07,1.447l.19-.149a36.441,36.441,0,0,0,4.008.129c-.01-1.5-.052-3,.039-4.495-1.426-.072-2.858,0-4.284.062.005.438.008.875.013,1.313-.659.021-1.318.021-1.975-.01a4.677,4.677,0,0,0,.129-1.243C355.377,195.278,354.317,195.314,353.267,195.427Z" transform="translate(-340.75 -175.288)"/><path class="a" d="M330.06,231.55a11.5,11.5,0,0,0,2.454,3.416c-.417-.767-.716-1.591-1.11-2.369A13.579,13.579,0,0,0,330.06,231.55Z" transform="translate(-324.1 -201.442)"/><path class="a" d="M408.856,196.67c-.422-.013-.844-.023-1.264-.033l-1.874-.1c.015.43.026.862.038,1.295-.631-.005-1.259-.036-1.889-.044,0-.44,0-.878,0-1.318-1.406-.031-2.814-.034-4.219-.09.015,1.55-.029,3.1.021,4.652l.268-.141c1.308.087,2.618-.008,3.929-.044,0-.44.008-.881.01-1.321.613-.015,1.225-.026,1.838-.036a9.222,9.222,0,0,1,.016,1.308c1.053-.039,2.1-.108,3.156-.149C408.877,199.322,408.918,198,408.856,196.67Z" transform="translate(-374.048 -176.196)"/><path class="a" d="M438.021,198.072c-.515-.057-1.03-.126-1.545-.178.044,1.249.046,2.495.021,3.743.51-.067,1.022-.129,1.534-.19A30.814,30.814,0,0,0,438.021,198.072Z" transform="translate(-400.488 -177.283)"/><path class="a" d="M327.314,216.653c-.51-.152-1.025-.293-1.542-.412a17.256,17.256,0,0,0,.7,2.863,4.42,4.42,0,0,0,1.4.955C327.659,218.926,327.428,217.8,327.314,216.653Z" transform="translate(-321.022 -190.453)"/><path class="a" d="M433.839,220.165a6.55,6.55,0,0,0,1.421-.934,15.323,15.323,0,0,0,.674-2.853,7.024,7.024,0,0,0-1.552.42A21.309,21.309,0,0,1,433.839,220.165Z" transform="translate(-398.596 -190.552)"/><path class="a" d="M335.841,221.847c.976.221,1.949.446,2.937.6-.157-1.29-.293-2.582-.381-3.877-1.038-.1-2.075-.206-3.11-.342A31.185,31.185,0,0,0,335.841,221.847Z" transform="translate(-327.853 -191.881)"/><path class="a" d="M419.342,222.511c1-.165,1.99-.407,2.986-.605.247-1.194.414-2.4.543-3.612-1.033.108-2.065.229-3.1.312C419.664,219.911,419.53,221.216,419.342,222.511Z" transform="translate(-388.189 -191.927)"/><path class="a" d="M353.266,223.806c1.318.155,2.644.247,3.97.319-.026-1.383-.106-2.762-.119-4.145-1.385-.106-2.775-.082-4.158-.209A38.317,38.317,0,0,0,353.266,223.806Z" transform="translate(-340.539 -192.988)"/><path class="a" d="M341.476,237.477c-.966-.263-1.931-.528-2.9-.772a15.372,15.372,0,0,0,.991,2.494,10.584,10.584,0,0,0,2.634,1.11A22.383,22.383,0,0,1,341.476,237.477Z" transform="translate(-330.211 -205.143)"/><path class="a" d="M360.694,220.555a31.111,31.111,0,0,1-.013,3.249c-1.045.816-2.006,1.733-2.981,2.628a22.745,22.745,0,0,1-2.806-.317,20.811,20.811,0,0,0,.595,2.989,24.484,24.484,0,0,0,3.612.5c-.09-.69-.178-1.38-.268-2.067,1.009-.927,2.083-1.781,3.1-2.7,1.086-.046,2.175-.039,3.264-.044.005-1.416.041-2.832.059-4.245C363.737,220.573,362.216,220.555,360.694,220.555Z" transform="translate(-341.927 -193.544)"/><path class="a" d="M429.453,233.065c-.3.677-.6,1.352-.878,2.036a13.488,13.488,0,0,0,2.361-3.377C430.418,232.133,429.708,232.409,429.453,233.065Z" transform="translate(-394.817 -201.567)"/><path class="a" d="M415.51,240.28c.88-.3,1.746-.646,2.613-.986a17.791,17.791,0,0,0,1.061-2.68c-.978.268-1.951.551-2.924.834A14.766,14.766,0,0,1,415.51,240.28Z" transform="translate(-385.439 -205.077)"/><path class="a" d="M410.4,251.912a11.77,11.77,0,0,0,3.393-2.489c-.767.376-1.529.757-2.327,1.061Q410.961,251.217,410.4,251.912Z" transform="translate(-381.771 -214.272)"/><path class="a" d="M397.629,240.7c-.062,1.032-.17,2.062-.293,3.092,1.215-.134,2.422-.322,3.627-.525.2-1,.456-1.99.569-3C400.237,240.471,398.93,240.562,397.629,240.7Z" transform="translate(-372.393 -207.697)"/><path class="a" d="M358.252,254.742a4.983,4.983,0,0,0,.9,1.4,14.269,14.269,0,0,0,2.932.718c-.124-.494-.257-.986-.384-1.477C360.546,255.185,359.39,255.012,358.252,254.742Z" transform="translate(-344.337 -218.09)"/><path class="a" d="M395.183,256.914c1-.221,2-.456,2.994-.692a8.8,8.8,0,0,0,.826-1.452c-1.094.263-2.214.391-3.318.613A10.789,10.789,0,0,0,395.183,256.914Z" transform="translate(-370.847 -218.11)"/><path class="a" d="M376.936,257.51a5.976,5.976,0,0,0,.281,1.575c1.091-.069,2.188.072,3.272-.067a13.707,13.707,0,0,0,.185-1.521C379.428,257.531,378.182,257.52,376.936,257.51Z" transform="translate(-357.749 -220.068)"/></svg>